# xmcd CD database file
#
# Track frame offsets:
#	150
#	18855
#	36015
#	53097
#	69340
#	91180
#	107095
#	122525
#	143815
#	160447
#
# Disc length: 2577 seconds
#
# Revision: 0
# Processed by: cddbd v1.5.1PL0 Copyright (c) Steve Scherf et al.
# Submitted via: CDex 1.51
#
DISCID=780a0f0a
DTITLE=勇直子 - コンプリートベスト Disc 2
DYEAR=2004
DGENRE=JPop
TTITLE0=BOYS AND GIRLS
TTITLE1=私の場合
TTITLE2=さよならは落ち込まないで
TTITLE3=ムンクの叫び
TTITLE4=Boom Boom Boom(Let's Go To Your Room)
TTITLE5=ラスト・パラシュート
TTITLE6=ねじれた美学
TTITLE7=ポラロイドのふたり
TTITLE8=FANCY FREE
TTITLE9=Boom Boom Boom(12inch Club Mix)
EXTD=YEAR: 2004
EXTT0=
EXTT1=
EXTT2=
EXTT3=
EXTT4=
EXTT5=
EXTT6=
EXTT7=
EXTT8=
EXTT9=
PLAYORDER=
